<svg width="24" height="24" viewBox="0 0 24 24" fill="none" xmlns="http://www.w3.org/2000/svg">
<g id="24x-telegram">
<path id="Vector" d="M21.0399 3.02488C21.0399 3.02488 23.1674 2.20245 22.9894 4.19961C22.9308 5.02204 22.3991 7.9008 21.9851 11.0141L20.5668 20.2372C20.5668 20.2372 20.4485 21.5883 19.3845 21.8234C18.321 22.0579 16.7253 21.001 16.4296 20.7659C16.193 20.5895 11.9972 17.9458 10.5198 16.6538C10.1058 16.3009 9.63264 15.5963 10.5789 14.7739L16.7839 8.89911C17.4931 8.19448 18.2022 6.54963 15.2473 8.5468L6.97289 14.1273C6.97289 14.1273 6.02717 14.7153 4.25455 14.1865L0.412512 13.0112C0.412512 13.0112 -1.0058 12.1302 1.41738 11.2491C7.32775 8.48817 14.5973 5.66858 21.0388 3.02488H21.0399Z" fill="white"/>
</g>
</svg>
